<svg width="81" height="81" viewBox="0 0 81 81" fill="none" xmlns="http://www.w3.org/2000/svg">
<path d="M12.2158 40.8916C17.4823 40.1775 22.6038 41.3103 27.8721 44.3438C31.4541 46.4062 33.1083 47.6563 38.9316 52.6973C41.5063 54.9122 42.879 55.9547 43.668 56.2949C45.0607 56.9061 47.9318 57.2402 51.7695 57.2402C51.8419 57.2402 51.9151 57.2411 51.9883 57.2402C56.4229 57.2278 59.0879 56.8798 64.9473 55.5518C69.8903 54.4364 71.0785 54.5123 72.4316 56.0264L72.9004 56.5615L73.793 56.416C75.155 56.1892 76.3863 56.322 77.083 56.7773C77.7878 57.2372 78.3527 58.3901 78.2686 59.1963L78.2275 59.5977L78.7959 59.7627C80.209 60.1578 80.9725 62.1818 80.1826 63.5205C79.9471 63.9201 79.0908 64.7705 79.0908 64.7705C73.0138 70.5576 69.5129 73.1205 64.1094 75.7412C58.4856 78.4699 52.4267 80.001 45.585 80.4219C44.745 80.4741 43.9251 80.5 43.1191 80.5C39.2275 80.5 35.6375 79.8888 31.5273 78.5547C24.9463 76.4062 16.9625 71.2966 11.6602 65.8418C8.53031 62.6266 7.37565 60.9953 3.94043 54.9326C3.07002 53.384 1.9513 51.2996 1.44531 50.2852C0.101202 47.6238 0.152279 46.9785 1.84277 45.3467C2.94784 44.2667 4.28595 43.4538 6.61426 42.4482C8.56557 41.6172 10.2403 41.1521 12.2158 40.8916ZM14.8525 41.79C14.5939 41.79 14.362 41.7975 14.165 41.8125C12.7297 41.9392 10.6538 42.2914 9.63184 42.5811C8.28953 42.9602 5.71644 44.0456 4.53516 44.7305C2.86427 45.7165 1.56763 47.1634 1.56738 47.75C1.56738 48.597 6.27464 57.1628 8.85645 60.7705C13.2973 66.9953 22.415 73.896 30.0654 76.8232C34.4059 78.487 37.8268 79.1871 42.2666 79.3174C46.2372 79.4343 50.604 78.9281 54.8711 77.8535C58.5642 76.9117 61.1985 75.9401 64.2656 74.3896C68.7808 72.1039 72.0111 69.7723 76.6123 65.4824C77.5825 64.574 78.531 63.7133 78.6982 63.5771C79.5221 62.7745 79.4662 62.0238 79.3408 61.7217C79.1796 61.3293 78.9995 61.0863 78.5625 60.918C77.4136 60.4821 76.199 60.7851 72.917 62.3311C64.9782 66.0796 60.5813 67.5813 55.4912 68.2812C48.5877 69.2328 40.9213 67.9305 34.4619 64.7021C31.2762 63.097 27.9154 60.9004 27.96 59.9902C27.9644 59.8999 28.0058 59.7361 28.2314 59.6484C28.3586 59.5953 28.5853 59.6143 29.6504 60.4688C30.2459 60.9525 31.1752 61.6258 31.7188 61.9678C33.2521 62.9504 37.2907 64.8711 39.0449 65.4541C45.1764 67.4767 49.1668 67.7464 51.9805 66.3271C53.1509 65.7442 54.0461 64.8004 54.1562 64.0322C54.1974 63.7471 54.1247 63.5147 53.9385 63.3438C53.8165 63.2338 53.0963 62.8499 52.1465 62.4248C48.7104 60.9001 46.5098 59.7103 44.0283 58.0332C41.2122 56.1312 41.038 55.9932 34.7412 50.6309C32.1406 48.423 29.76 46.7492 27.0225 45.2041C23.9186 43.4729 21.6647 42.6371 18.7051 42.125C17.5051 41.9204 15.9451 41.7901 14.8525 41.79ZM75.9189 57.4512C74.967 57.2341 73.586 57.4292 72.0332 57.9971C64.3049 60.8162 58.6412 62.1875 54.7197 62.1875H54.1533L54.3477 62.3271C55.0935 62.8596 55.3721 63.2799 55.3721 63.877C55.3718 64.9711 54.1501 66.4411 52.5303 67.2969L52.3242 67.4072L53.1348 67.3623C55.3655 67.2436 58.6577 66.6559 60.9619 65.9648C63.4201 65.2286 67.65 63.5011 72.2754 61.3438C74.1503 60.4668 75.8058 59.8305 76.7031 59.6426C76.8975 59.5992 77.0283 59.5175 77.1035 59.3926C77.2047 59.2225 77.2058 58.9609 77.1055 58.6172C76.9201 57.967 76.5431 57.5965 75.9189 57.4512ZM70.7822 56.0791C70.3094 55.8824 69.3807 55.7746 68.8389 55.8525C68.5843 55.8836 65.8906 56.4801 65.0059 56.6768C59.1897 57.9729 57.1013 58.2536 52.5889 58.3457C50.0572 58.3838 48.7663 58.349 47.4678 58.2002C46.7689 58.1285 46.3339 58.0875 46.0635 58.0645C46.8614 58.5464 48.7923 59.624 50.0352 60.2441L51.5703 61.0029H53.9512C58.1089 61.0029 61.7637 60.2934 67.4385 58.3877C70.8851 57.2289 71.6185 56.9773 71.752 56.8701C71.7041 56.7255 71.253 56.2713 70.7822 56.0791ZM50.0322 0.566406C51.2922 0.339653 53.1906 0.711562 54.4434 1.43359C55.1472 1.83582 56.1816 2.86442 56.6123 3.5918C56.966 4.19868 57.3801 5.24696 57.6201 6.14355C57.6694 6.33745 57.7199 6.46901 57.7539 6.53809C60.7387 4.99473 62.7188 4.90249 64.3594 6.23145C65.7437 7.35838 66.1812 10.2532 65.3154 12.5557C64.8847 13.656 63.9227 15.2503 63.0801 16.2656C61.5819 18.0782 59.9375 19.3396 56.5635 21.2646C56.2805 21.425 56.0204 21.5676 55.792 21.6934C55.3989 21.9077 54.9928 22.129 54.8701 22.2441C55.1773 22.3478 56.5696 22.3291 58.7842 22.3008C59.4342 22.2928 60.1747 22.2744 61.0127 22.2744C67.5375 22.2744 67.7685 22.093 68.0059 22.5059C68.1901 22.8389 68.0542 47.3206 67.7266 47.5898C67.6125 47.6829 62.5733 47.7859 52.7471 47.8975C46.6111 47.9674 43.0004 47.9961 40.8682 47.9961C38.0776 47.9961 37.8188 47.9462 37.7422 47.8711C37.615 47.7444 37.5386 47.0981 37.4365 35.2695C37.4363 35.2547 37.3174 26.202 37.3174 23.2656C37.3174 23.0202 37.4362 22.77 37.6582 22.5928C37.9931 22.3252 38.2917 22.3263 44.4238 22.3271L50.2891 22.3154L50.2148 22.2744C47.6411 20.817 44.3228 18.419 42.8174 16.9297C41.6705 15.7941 40.8826 14.6461 40.2344 13.3662C39.38 11.6802 39.8708 9.91949 40.1162 9.44727C41.1693 7.48664 43.1573 6.65498 45.0684 7.37793L45.5352 7.55078L45.6016 6.60059C45.8442 3.36503 47.5848 0.9961 50.0322 0.566406ZM38.5068 35.835L38.5801 37.7549C38.632 38.8669 38.6738 41.4157 38.6738 43.4365V46.9072L44.3955 46.8691C47.6489 46.8567 50.7557 46.8037 51.3584 46.7656L52.3184 46.6963V41.7588C52.3184 38.9016 52.2779 36.4801 52.2412 36.208L52.1699 35.835H38.5068ZM54.0137 35.8857C53.7477 35.853 53.5368 35.8622 53.458 35.8799C53.3765 36.2369 53.3475 38.7194 53.4756 43.498L53.5518 46.75L60.1104 46.6729C63.6149 46.6348 66.2519 46.5665 66.7646 46.5293C66.7996 46.0846 66.8577 44.0107 66.8818 41.1943L66.9209 35.9658H60.8271C57.5378 35.9658 54.3532 35.9291 54.0137 35.8857ZM38.4756 23.5117L38.5146 29.041C38.5406 32.1099 38.5743 34.1796 38.5967 34.6484C39.1295 34.6724 41.6955 34.7178 45.418 34.7559L52.1865 34.8203V23.5117H38.4756ZM60.2451 23.3799C56.4446 23.3799 53.8023 23.4308 53.3779 23.4707C53.2866 23.8676 53.3087 26.3974 53.3428 29.1846L53.4209 34.7822H66.8955V23.3799H60.2451ZM52.2217 1.80762C50.3339 1.32565 48.8576 1.84757 47.835 3.36523C47.5305 3.8038 47.1869 4.47633 47.084 4.83594C46.8324 5.6742 46.5753 7.70562 46.6738 8.08301C46.7011 8.19061 47.0318 8.63423 47.4873 9.08398C48.8744 10.483 50.6567 13.4292 51.5459 15.792C52.136 17.3327 52.9144 19.4127 52.7998 19.7148C52.7299 19.8847 52.5728 19.9902 52.377 20.001C52.1378 20.0214 51.9135 19.8869 51.7998 19.6787C51.7027 19.5202 51.3168 18.7449 51 17.7676C50.023 14.8554 48.1135 11.2628 46.9932 10.2324C46.9574 10.1997 46.9229 10.1671 46.8916 10.1396C46.9364 10.7545 47.8262 13.6616 48.4307 15.1465C48.7709 15.9694 49.355 17.1625 49.7061 17.75C50.401 18.908 52.1601 21.3777 52.6016 21.8145L52.8213 22.0439L54.9844 20.835C60.2176 17.883 62.2618 16.0888 63.7295 13.1572C64.6257 11.3722 64.8368 10.005 64.4365 8.58398C64.1687 7.63524 63.6539 6.99632 62.9053 6.68359C61.8378 6.24061 60.3832 6.49025 58.6934 7.40723L57.9932 7.78906L57.9561 9.61328C57.9023 12.4226 57.2699 14.421 56.0234 15.7207C55.5658 16.2018 55.3703 16.2988 54.8652 16.2988C54.3969 16.2988 54.1967 16.2085 53.8887 15.8604C53.4412 15.3333 53.3239 14.7433 53.4062 13.4326C53.5119 11.7175 54.5649 9.51284 56.0254 7.94824L56.6914 7.22852L56.4326 6.29004C56.0475 4.86983 55.5665 3.94931 54.8232 3.21484C54.0872 2.4858 53.3812 2.10439 52.2217 1.80762ZM43.5889 8.25684C42.7481 8.25684 41.9986 8.68863 41.4336 9.52734C40.9366 10.2706 40.8867 10.4784 40.9512 11.5439C41.0031 12.4476 41.2922 13.1369 42.1904 14.4941C43.4074 16.313 47.0831 19.2611 50.5586 21.2031C50.6749 21.2704 50.7753 21.3258 50.8604 21.3701C50.787 21.2656 50.6939 21.1372 50.583 20.9912C49.5891 19.72 48.1517 17.3549 47.625 16.126C46.8575 14.3186 46.1299 12.0236 45.8926 10.6689C45.5836 8.91929 45.5831 8.91906 44.9707 8.61523C44.4943 8.37516 44.0285 8.25685 43.5889 8.25684ZM56.7695 8.76172C56.5068 9.05647 55.7377 10.2203 55.291 11.1387C54.4412 12.9097 54.2331 14.4341 54.748 15.1172C54.7703 15.148 54.8209 15.2166 54.8408 15.2295C54.8722 15.2153 55.0414 15.0536 55.1426 14.957C55.67 14.4591 56.3592 13.0085 56.6162 11.8506C56.7317 11.3456 56.8242 10.4061 56.8242 9.75684C56.8242 9.27863 56.7964 8.93368 56.7695 8.76172Z" fill="#C08237"/>
<path d="M12.2158 40.8916L12.2812 41.3873L12.283 41.3871L12.2158 40.8916ZM27.8721 44.3438L27.6226 44.7771H27.6226L27.8721 44.3438ZM38.9316 52.6973L38.6044 53.0753L38.6056 53.0763L38.9316 52.6973ZM43.668 56.2949L43.8689 55.8371L43.866 55.8358L43.668 56.2949ZM51.7695 57.2402V56.7402V57.2402ZM51.9883 57.2402L51.9869 56.7402L51.9823 56.7403L51.9883 57.2402ZM64.9473 55.5518L64.8372 55.064L64.8367 55.0641L64.9473 55.5518ZM72.4316 56.0264L72.8078 55.6969L72.8045 55.6932L72.4316 56.0264ZM72.9004 56.5615L72.5243 56.891L72.7071 57.0996L72.9808 57.055L72.9004 56.5615ZM73.793 56.416L73.8734 56.9095L73.8751 56.9092L73.793 56.416ZM77.083 56.7773L76.8095 57.1959L76.8098 57.1961L77.083 56.7773ZM78.2686 59.1963L77.7713 59.1444L77.7711 59.1455L78.2686 59.1963ZM78.2275 59.5977L77.7301 59.5468L77.6877 59.9616L78.0881 60.0778L78.2275 59.5977ZM78.7959 59.7627L78.6565 60.2429L78.6613 60.2442L78.7959 59.7627ZM80.1826 63.5205L79.752 63.2664L79.7519 63.2666L80.1826 63.5205ZM79.0908 64.7705L79.4357 65.1327L79.4432 65.1253L79.0908 64.7705ZM64.1094 75.7412L63.8912 75.2913L63.8911 75.2914L64.1094 75.7412ZM45.585 80.4219L45.5543 79.9228L45.5539 79.9228L45.585 80.4219ZM43.1191 80.5L43.1191 81H43.1191V80.5ZM31.5273 78.5547L31.3722 79.03L31.373 79.0303L31.5273 78.5547ZM11.6602 65.8418L12.0187 65.4933L12.0184 65.493L11.6602 65.8418ZM3.94043 54.9326L3.50456 55.1776L3.50541 55.1791L3.94043 54.9326ZM1.44531 50.2852L1.89275 50.062L1.89162 50.0597L1.44531 50.2852ZM1.84277 45.3467L2.19003 45.7064L2.19225 45.7043L1.84277 45.3467ZM6.61426 42.4482L6.41834 41.9882L6.41601 41.9892L6.61426 42.4482ZM14.8525 41.79L14.8525 41.29H14.8525V41.79ZM14.165 41.8125L14.127 41.3139L14.1211 41.3144L14.165 41.8125ZM9.63184 42.5811L9.76776 43.0622L9.7682 43.0621L9.63184 42.5811ZM4.53516 44.7305L4.28437 44.2979L4.28105 44.2999L4.53516 44.7305ZM1.56738 47.75L1.06738 47.7498V47.75H1.56738ZM8.85645 60.7705L9.26348 60.4801L9.26305 60.4795L8.85645 60.7705ZM30.0654 76.8232L30.2444 76.3564L30.2441 76.3563L30.0654 76.8232ZM42.2666 79.3174L42.2813 78.8176H42.2813L42.2666 79.3174ZM54.8711 77.8535L54.9932 78.3384L54.9946 78.338L54.8711 77.8535ZM64.2656 74.3896L64.4912 74.8359L64.4915 74.8357L64.2656 74.3896ZM76.6123 65.4824L76.9533 65.8481L76.9541 65.8474L76.6123 65.4824ZM78.6982 63.5771L79.014 63.9649L79.0312 63.9508L79.0472 63.9353L78.6982 63.5771ZM79.3408 61.7217L78.8783 61.9117L78.879 61.9133L79.3408 61.7217ZM78.5625 60.918L78.7422 60.4514L78.7398 60.4505L78.5625 60.918ZM72.917 62.3311L72.7039 61.8787L72.7035 61.8789L72.917 62.3311ZM55.4912 68.2812L55.4231 67.7859L55.4229 67.7859L55.4912 68.2812ZM34.4619 64.7021L34.2369 65.1487L34.2384 65.1494L34.4619 64.7021ZM27.96 59.9902L27.4606 59.9655L27.4606 59.9658L27.96 59.9902ZM28.2314 59.6484L28.4126 60.1146L28.4241 60.1098L28.2314 59.6484ZM29.6504 60.4688L29.9656 60.0806L29.9633 60.0787L29.6504 60.4688ZM31.7188 61.9678L31.9885 61.5468L31.985 61.5446L31.7188 61.9678ZM39.0449 65.4541L38.8872 65.9286L38.8883 65.9289L39.0449 65.4541ZM51.9805 66.3271L51.7575 65.8796L51.7553 65.8807L51.9805 66.3271ZM54.1562 64.0322L53.6614 63.9609L53.6613 63.9613L54.1562 64.0322ZM53.9385 63.3438L54.2766 62.9754L54.2732 62.9723L53.9385 63.3438ZM52.1465 62.4248L52.3507 61.9684L52.3493 61.9678L52.1465 62.4248ZM44.0283 58.0332L44.3083 57.6189L44.3082 57.6189L44.0283 58.0332ZM34.7412 50.6309L35.0654 50.2502L35.0648 50.2497L34.7412 50.6309ZM27.0225 45.2041L27.2682 44.7687L27.266 44.7674L27.0225 45.2041ZM18.7051 42.125L18.7903 41.6323L18.7891 41.6321L18.7051 42.125ZM75.9189 57.4512L76.0323 56.9642L76.0301 56.9637L75.9189 57.4512ZM72.0332 57.9971L72.2046 58.4668L72.2049 58.4667L72.0332 57.9971ZM54.1533 62.1875V61.6875H52.6007L53.8615 62.5935L54.1533 62.1875ZM54.3477 62.3271L54.0559 62.7332L54.0572 62.7341L54.3477 62.3271ZM55.3721 63.877L55.8721 63.8771V63.877H55.3721ZM52.5303 67.2969L52.2967 66.8548L52.2942 66.8561L52.5303 67.2969ZM52.3242 67.4072L52.0882 66.9665L52.3519 67.9065L52.3242 67.4072ZM53.1348 67.3623L53.1082 66.863L53.1071 66.8631L53.1348 67.3623ZM60.9619 65.9648L60.8185 65.4859L60.8183 65.4859L60.9619 65.9648ZM72.2754 61.3438L72.4867 61.7969L72.4872 61.7967L72.2754 61.3438ZM76.7031 59.6426L76.8056 60.132L76.8121 60.1306L76.7031 59.6426ZM77.1035 59.3926L77.5319 59.6505L77.5332 59.6482L77.1035 59.3926ZM77.1055 58.6172L76.6246 58.7543L76.6255 58.7572L77.1055 58.6172ZM70.7822 56.0791L70.5902 56.5408L70.5933 56.542L70.7822 56.0791ZM68.8389 55.8525L68.8995 56.349L68.9101 56.3474L68.8389 55.8525ZM65.0059 56.6768L64.8974 56.1887L64.8971 56.1887L65.0059 56.6768ZM52.5889 58.3457L52.5964 58.8457L52.5991 58.8456L52.5889 58.3457ZM47.4678 58.2002L47.5247 57.7034L47.5188 57.7028L47.4678 58.2002ZM46.0635 58.0645L46.1059 57.5663L45.805 58.4924L46.0635 58.0645ZM50.0352 60.2441L49.8119 60.6915L49.8136 60.6924L50.0352 60.2441ZM51.5703 61.0029L51.3488 61.4512L51.4535 61.5029H51.5703V61.0029ZM53.9512 61.0029V61.5029H53.9512L53.9512 61.0029ZM67.4385 58.3877L67.5976 58.8617L67.5978 58.8616L67.4385 58.3877ZM71.752 56.8701L72.0651 57.2599L72.3356 57.0426L72.2267 56.7132L71.752 56.8701ZM50.0322 0.566406L50.1187 1.05888L50.1208 1.0585L50.0322 0.566406ZM54.4434 1.43359L54.1937 1.8668L54.1953 1.86771L54.4434 1.43359ZM56.6123 3.5918L57.0443 3.34001L57.0425 3.33702L56.6123 3.5918ZM57.6201 6.14355L58.1048 6.02049L58.1031 6.01427L57.6201 6.14355ZM57.7539 6.53809L57.3053 6.75897L57.5306 7.21643L57.9836 6.98222L57.7539 6.53809ZM64.3594 6.23145L64.675 5.84369L64.6741 5.84292L64.3594 6.23145ZM65.3154 12.5557L65.7811 12.7379L65.7834 12.7316L65.3154 12.5557ZM63.0801 16.2656L62.6953 15.9463L62.6947 15.9471L63.0801 16.2656ZM56.5635 21.2646L56.81 21.6997L56.8113 21.6989L56.5635 21.2646ZM55.792 21.6934L56.0314 22.1323L56.0333 22.1313L55.792 21.6934ZM54.8701 22.2441L54.5279 21.8796L53.9193 22.451L54.7102 22.7179L54.8701 22.2441ZM58.7842 22.3008L58.778 21.8008L58.7778 21.8008L58.7842 22.3008ZM61.0127 22.2744V21.7744H61.0127L61.0127 22.2744ZM68.0059 22.5059L68.4434 22.2638L68.4393 22.2567L68.0059 22.5059ZM67.7266 47.5898L68.0426 47.9773L68.044 47.9761L67.7266 47.5898ZM52.7471 47.8975L52.7414 47.3975L52.7414 47.3975L52.7471 47.8975ZM40.8682 47.9961V48.4961V48.4961V47.9961ZM37.7422 47.8711L37.3893 48.2253L37.392 48.228L37.7422 47.8711ZM37.4365 35.2695L37.9365 35.2652L37.9365 35.263L37.4365 35.2695ZM37.3174 23.2656H36.8174V23.2656H37.3174ZM37.6582 22.5928L37.9701 22.9836L37.9703 22.9834L37.6582 22.5928ZM44.4238 22.3271L44.4238 22.8272L44.4248 22.8271L44.4238 22.3271ZM50.2891 22.3154L50.2901 22.8154L52.2206 22.8116L50.5309 21.8778L50.2891 22.3154ZM50.2148 22.2744L49.9685 22.7095L49.973 22.712L50.2148 22.2744ZM42.8174 16.9297L42.4656 17.285L42.4657 17.2851L42.8174 16.9297ZM40.2344 13.3662L40.6804 13.1403L40.6804 13.1402L40.2344 13.3662ZM40.1162 9.44727L39.6757 9.21064L39.6725 9.21672L40.1162 9.44727ZM45.0684 7.37793L44.8914 7.8456L44.8947 7.84682L45.0684 7.37793ZM45.5352 7.55078L45.3615 8.01967L45.9874 8.25143L46.0339 7.58564L45.5352 7.55078ZM45.6016 6.60059L45.103 6.56319L45.1028 6.56573L45.6016 6.60059ZM38.5068 35.835V35.335H37.9874L38.0072 35.854L38.5068 35.835ZM38.5801 37.7549L38.0804 37.7739L38.0806 37.7782L38.5801 37.7549ZM38.6738 43.4365H38.1738H38.6738ZM38.6738 46.9072H38.1738V47.4106L38.6772 47.4072L38.6738 46.9072ZM44.3955 46.8691L44.3936 46.3691L44.3922 46.3692L44.3955 46.8691ZM51.3584 46.7656L51.3899 47.2646L51.3944 47.2643L51.3584 46.7656ZM52.3184 46.6963L52.3544 47.195L52.8184 47.1615V46.6963H52.3184ZM52.3184 41.7588H52.8184V41.7588H52.3184ZM52.2412 36.208L52.7367 36.1412L52.7349 36.1276L52.7323 36.1142L52.2412 36.208ZM52.1699 35.835L52.661 35.7411L52.5834 35.335H52.1699V35.835ZM54.0137 35.8857L54.0771 35.3898L54.0748 35.3895L54.0137 35.8857ZM53.458 35.8799L53.3483 35.3921L53.0407 35.4612L52.9705 35.7686L53.458 35.8799ZM53.4756 43.498L53.9755 43.4863L53.9754 43.4847L53.4756 43.498ZM53.5518 46.75L53.0519 46.7617L53.0635 47.2558L53.5576 47.25L53.5518 46.75ZM60.1104 46.6729L60.1049 46.1729L60.1045 46.1729L60.1104 46.6729ZM66.7646 46.5293L66.8008 47.028L67.2295 46.9969L67.2631 46.5684L66.7646 46.5293ZM66.8818 41.1943L67.3818 41.1986V41.1981L66.8818 41.1943ZM66.9209 35.9658L67.4209 35.9696L67.4246 35.4658H66.9209V35.9658ZM60.8271 35.9658V36.4658V36.4658V35.9658ZM38.4756 23.5117V23.0117H37.972L37.9756 23.5153L38.4756 23.5117ZM38.5146 29.041L38.0147 29.0445L38.0147 29.0452L38.5146 29.041ZM38.5967 34.6484L38.0972 34.6723L38.119 35.1275L38.5743 35.1479L38.5967 34.6484ZM45.418 34.7559L45.4129 35.2558L45.4132 35.2558L45.418 34.7559ZM52.1865 34.8203L52.1818 35.3203L52.6865 35.3251V34.8203H52.1865ZM52.1865 23.5117H52.6865V23.0117H52.1865V23.5117ZM60.2451 23.3799V22.8799V22.8799V23.3799ZM53.3779 23.4707L53.3312 22.9729L52.9716 23.0067L52.8907 23.3586L53.3779 23.4707ZM53.3428 29.1846L52.8428 29.1907L52.8428 29.1915L53.3428 29.1846ZM53.4209 34.7822L52.9209 34.7892L52.9278 35.2822H53.4209V34.7822ZM66.8955 34.7822V35.2822H67.3955V34.7822H66.8955ZM66.8955 23.3799H67.3955V22.8799H66.8955V23.3799ZM52.2217 1.80762L52.3457 1.32323L52.3454 1.32316L52.2217 1.80762ZM47.835 3.36523L48.2457 3.65037L48.2496 3.64464L47.835 3.36523ZM47.084 4.83594L47.5629 4.9797L47.5647 4.97356L47.084 4.83594ZM46.6738 8.08301L47.1585 7.96014L47.1576 7.95674L46.6738 8.08301ZM47.4873 9.08398L47.8424 8.73192L47.8386 8.72819L47.4873 9.08398ZM51.5459 15.792L51.0779 15.9681L51.079 15.9708L51.5459 15.792ZM52.7998 19.7148L53.2624 19.9051L53.2673 19.8922L52.7998 19.7148ZM52.377 20.001L52.3495 19.5017L52.342 19.5021L52.3345 19.5028L52.377 20.001ZM51.7998 19.6787L52.2386 19.439L52.2327 19.4281L52.2262 19.4176L51.7998 19.6787ZM51 17.7676L51.4757 17.6134L51.474 17.6085L51 17.7676ZM46.9932 10.2324L47.3316 9.86441L47.3307 9.86356L46.9932 10.2324ZM46.8916 10.1396L47.2211 9.7636L46.3044 8.9603L46.3929 10.176L46.8916 10.1396ZM48.4307 15.1465L47.9676 15.335L47.9686 15.3375L48.4307 15.1465ZM49.7061 17.75L49.2768 18.0065L49.2773 18.0073L49.7061 17.75ZM52.6016 21.8145L52.9628 21.4685L52.9532 21.459L52.6016 21.8145ZM52.8213 22.0439L52.4601 22.3897L52.7276 22.6691L53.0652 22.4804L52.8213 22.0439ZM54.9844 20.835L55.2283 21.2714L55.23 21.2705L54.9844 20.835ZM63.7295 13.1572L63.2826 12.9329L63.2824 12.9334L63.7295 13.1572ZM64.4365 8.58398L64.9178 8.44842L64.9177 8.44817L64.4365 8.58398ZM62.9053 6.68359L63.098 6.22223L63.0969 6.22178L62.9053 6.68359ZM58.6934 7.40723L58.4549 6.96776L58.454 6.96826L58.6934 7.40723ZM57.9932 7.78906L57.7538 7.35009L57.4992 7.48894L57.4933 7.77889L57.9932 7.78906ZM57.9561 9.61328L57.4562 9.60311L57.4561 9.60372L57.9561 9.61328ZM56.0234 15.7207L55.6626 15.3746L55.6612 15.3761L56.0234 15.7207ZM54.8652 16.2988V16.7988H54.8652L54.8652 16.2988ZM53.8887 15.8604L53.5074 16.184L53.5142 16.1917L53.8887 15.8604ZM53.4062 13.4326L53.9053 13.464L53.9053 13.4634L53.4062 13.4326ZM56.0254 7.94824L56.3909 8.28943L56.3924 8.28784L56.0254 7.94824ZM56.6914 7.22852L57.0584 7.56811L57.2474 7.36386L57.1734 7.0956L56.6914 7.22852ZM56.4326 6.29004L55.95 6.42089L55.9506 6.42296L56.4326 6.29004ZM54.8232 3.21484L54.4714 3.57008L54.4718 3.5705L54.8232 3.21484ZM43.5889 8.25684L43.5889 7.75684H43.5889V8.25684ZM41.4336 9.52734L41.0189 9.24798L41.0179 9.24943L41.4336 9.52734ZM40.9512 11.5439L41.4504 11.5153L41.4503 11.5138L40.9512 11.5439ZM42.1904 14.4941L41.7735 14.7701L41.7749 14.7722L42.1904 14.4941ZM50.5586 21.2031L50.809 20.7703L50.8025 20.7666L50.5586 21.2031ZM50.8604 21.3701L50.6294 21.8136L51.2695 21.0827L50.8604 21.3701ZM50.583 20.9912L50.9812 20.6887L50.9769 20.6832L50.583 20.9912ZM47.625 16.126L47.1648 16.3214L47.1654 16.3229L47.625 16.126ZM45.8926 10.6689L46.3851 10.5827L46.385 10.582L45.8926 10.6689ZM44.9707 8.61523L44.7457 9.06175L44.7485 9.06314L44.9707 8.61523ZM56.7695 8.76172L57.2635 8.68457L57.1003 7.63914L56.3963 8.42904L56.7695 8.76172ZM55.291 11.1387L54.8414 10.92L54.8402 10.9224L55.291 11.1387ZM54.748 15.1172L55.1535 14.8244L55.1473 14.8162L54.748 15.1172ZM54.8408 15.2295L54.569 15.6492L54.7982 15.7975L55.0469 15.6851L54.8408 15.2295ZM55.1426 14.957L54.7994 14.5934L54.7974 14.5953L55.1426 14.957ZM56.6162 11.8506L56.1288 11.7391L56.1281 11.7422L56.6162 11.8506ZM56.8242 9.75684L57.3242 9.75687V9.75684H56.8242ZM12.2158 40.8916L12.283 41.3871C17.4242 40.69 22.4353 41.7902 27.6226 44.7771L27.8721 44.3438L28.1216 43.9104C22.7722 40.8303 17.5404 39.6651 12.1486 40.3961L12.2158 40.8916ZM27.8721 44.3438L27.6226 44.7771C31.1627 46.8154 32.7883 48.0406 38.6044 53.0753L38.9316 52.6973L39.2589 52.3192C33.4283 47.272 31.7455 45.9971 28.1216 43.9104L27.8721 44.3438ZM38.9316 52.6973L38.6056 53.0763C39.8952 54.1858 40.8912 55.008 41.667 55.5973C42.4353 56.1809 43.0163 56.5584 43.47 56.7541L43.668 56.2949L43.866 55.8358C43.5307 55.6912 43.0308 55.3774 42.2719 54.8009C41.5204 54.2302 40.5427 53.4237 39.2577 52.3182L38.9316 52.6973ZM43.668 56.2949L43.467 56.7528C44.2325 57.0887 45.3577 57.3318 46.744 57.4934C48.1402 57.6562 49.8377 57.7402 51.7695 57.7402V57.2402V56.7402C49.8636 56.7402 48.2067 56.6572 46.8598 56.5001C45.5029 56.3419 44.4962 56.1123 43.8689 55.8371L43.668 56.2949ZM51.7695 57.2402V57.7402C51.8333 57.7402 51.9176 57.7411 51.9943 57.7402L51.9883 57.2402L51.9823 56.7403C51.9126 56.7411 51.8504 56.7402 51.7695 56.7402V57.2402ZM51.9883 57.2402L51.9897 57.7402C56.4714 57.7277 59.1744 57.3729 65.0578 56.0394L64.9473 55.5518L64.8367 55.0641C59.0014 56.3867 56.3744 56.728 51.9869 56.7402L51.9883 57.2402ZM64.9473 55.5518L65.0573 56.0395C67.5414 55.479 69.0036 55.2385 70.004 55.302C70.4882 55.3328 70.8458 55.4345 71.1507 55.5975C71.4594 55.7626 71.7425 56.0056 72.0588 56.3595L72.4316 56.0264L72.8045 55.6932C72.4442 55.2901 72.0714 54.9558 71.6222 54.7157C71.1693 54.4735 70.6672 54.3421 70.0673 54.304C68.8995 54.2299 67.2962 54.5092 64.8372 55.064L64.9473 55.5518ZM72.4316 56.0264L72.0555 56.3558L72.5243 56.891L72.9004 56.5615L73.2765 56.2321L72.8078 55.6969L72.4316 56.0264ZM72.9004 56.5615L72.9808 57.055L73.8734 56.9095L73.793 56.416L73.7125 55.9225L72.8199 56.068L72.9004 56.5615ZM73.793 56.416L73.8751 56.9092C75.1913 56.6901 76.269 56.8426 76.8095 57.1959L77.083 56.7773L77.3566 56.3588C76.5036 55.8013 75.1188 55.6884 73.7108 55.9228L73.793 56.416ZM77.083 56.7773L76.8098 57.1961C77.0646 57.3624 77.33 57.6837 77.5227 58.077C77.7161 58.4718 77.8004 58.8652 77.7713 59.1444L78.2686 59.1963L78.7659 59.2482C78.8209 58.7212 78.6647 58.135 78.4206 57.6369C78.1757 57.1371 77.8062 56.6521 77.3562 56.3586L77.083 56.7773ZM78.2686 59.1963L77.7711 59.1455L77.7301 59.5468L78.2275 59.5977L78.7249 59.6485L78.766 59.2471L78.2686 59.1963ZM78.2275 59.5977L78.0881 60.0778L78.6565 60.2429L78.7959 59.7627L78.9353 59.2825L78.367 59.1175L78.2275 59.5977ZM78.7959 59.7627L78.6613 60.2442C79.1747 60.3878 79.6179 60.8467 79.8467 61.462C80.0746 62.0748 80.0549 62.7531 79.752 63.2664L80.1826 63.5205L80.6133 63.7746C81.1002 62.9493 81.0937 61.9462 80.784 61.1135C80.4753 60.2834 79.8302 59.5327 78.9305 59.2812L78.7959 59.7627ZM80.1826 63.5205L79.7519 63.2666C79.6663 63.4118 79.4324 63.6851 79.1818 63.9553C79.0638 64.0826 78.9525 64.1982 78.8706 64.2821C78.8297 64.3239 78.7963 64.3577 78.7733 64.3808C78.7618 64.3924 78.7529 64.4013 78.747 64.4072C78.744 64.4102 78.7418 64.4124 78.7404 64.4138C78.7397 64.4146 78.7391 64.4151 78.7388 64.4154C78.7387 64.4156 78.7386 64.4157 78.7385 64.4157C78.7385 64.4158 78.7385 64.4158 78.7384 64.4158C78.7384 64.4158 78.7385 64.4158 78.7385 64.4158C78.7385 64.4158 78.7385 64.4157 79.0908 64.7705C79.4432 65.1253 79.4432 65.1253 79.4432 65.1252C79.4432 65.1252 79.4432 65.1252 79.4433 65.1252C79.4433 65.1251 79.4434 65.1251 79.4435 65.125C79.4436 65.1248 79.4438 65.1246 79.4441 65.1244C79.4446 65.1239 79.4453 65.1232 79.4462 65.1223C79.448 65.1205 79.4506 65.1179 79.454 65.1145C79.4607 65.1078 79.4704 65.098 79.4828 65.0855C79.5076 65.0606 79.5429 65.0248 79.586 64.9807C79.672 64.8926 79.7895 64.7706 79.915 64.6354C80.1514 64.3805 80.4634 64.0288 80.6133 63.7744L80.1826 63.5205ZM79.0908 64.7705L78.746 64.4084C72.6928 70.1729 69.2339 72.7001 63.8912 75.2913L64.1094 75.7412L64.3276 76.1911C69.792 73.5409 73.3348 70.9424 79.4356 65.1326L79.0908 64.7705ZM64.1094 75.7412L63.8911 75.2914C58.3314 77.989 52.3371 79.5056 45.5543 79.9228L45.585 80.4219L45.6157 80.9209C52.5162 80.4965 58.6397 78.9509 64.3276 76.1911L64.1094 75.7412ZM45.585 80.4219L45.5539 79.9228C44.7239 79.9745 43.9144 80 43.1191 80V80.5V81C43.9358 81 44.7661 80.9738 45.616 80.9209L45.585 80.4219ZM43.1191 80.5L43.1191 80C39.2864 80 35.7485 79.3992 31.6817 78.0791L31.5273 78.5547L31.373 79.0303C35.5264 80.3784 39.1686 81 43.1191 81L43.1191 80.5ZM31.5273 78.5547L31.6825 78.0794C25.1859 75.9585 17.2703 70.8959 12.0187 65.4933L11.6602 65.8418L11.3016 66.1903C16.6548 71.6973 24.7066 76.854 31.3722 79.03L31.5273 78.5547ZM11.6602 65.8418L12.0184 65.493C8.9301 62.3205 7.79981 60.7296 4.37545 54.6861L3.94043 54.9326L3.50541 55.1791C6.95149 61.2609 8.13052 62.9327 11.3019 66.1906L11.6602 65.8418ZM3.94043 54.9326L4.3763 54.6876C3.508 53.1428 2.39365 51.0662 1.89274 50.062L1.44531 50.2852L0.99788 50.5083C1.50895 51.533 2.63204 53.6252 3.50456 55.1776L3.94043 54.9326ZM1.44531 50.2852L1.89162 50.0597C1.20814 48.7065 0.961462 48.0052 1.00446 47.4699C1.04403 46.9773 1.34241 46.5246 2.19002 45.7064L1.84277 45.3467L1.49552 44.9869C0.652638 45.8005 0.0802362 46.4864 0.00767154 47.3898C-0.0614637 48.2505 0.338371 49.2025 0.999005 50.5106L1.44531 50.2852ZM1.84277 45.3467L2.19225 45.7043C3.2344 44.6858 4.50904 43.9021 6.8125 42.9073L6.61426 42.4482L6.41601 41.9892C4.06285 43.0055 2.66127 43.8476 1.4933 44.9891L1.84277 45.3467ZM6.61426 42.4482L6.81017 42.9083C8.7224 42.0939 10.3534 41.6415 12.2812 41.3873L12.2158 40.8916L12.1505 40.3959C10.1273 40.6627 8.40874 41.1406 6.41834 41.9882L6.61426 42.4482ZM14.8525 41.79V41.29C14.5852 41.29 14.34 41.2977 14.127 41.314L14.165 41.8125L14.2031 42.311C14.3839 42.2972 14.6026 42.29 14.8525 42.29V41.79ZM14.165 41.8125L14.1211 41.3144C12.6646 41.443 10.556 41.7994 9.49547 42.1L9.63184 42.5811L9.7682 43.0621C10.7515 42.7834 12.7948 42.4354 14.209 42.3106L14.165 41.8125ZM9.63184 42.5811L9.49592 42.0999C8.11424 42.4902 5.50248 43.5917 4.28438 44.2979L4.53516 44.7305L4.78594 45.163C5.9304 44.4995 8.46481 43.4303 9.76776 43.0622L9.63184 42.5811ZM4.53516 44.7305L4.28105 44.2999C3.40549 44.8165 2.62752 45.4536 2.06314 46.0447C1.78131 46.3399 1.54405 46.6327 1.37365 46.9021C1.21667 47.1503 1.06751 47.4533 1.06738 47.7498L1.56738 47.75L2.06738 47.7502C2.06738 47.7534 2.08039 47.6555 2.21882 47.4366C2.34382 47.239 2.53519 46.9984 2.78642 46.7353C3.28814 46.2098 3.99394 45.6304 4.78926 45.1611L4.53516 44.7305ZM1.56738 47.75H1.06738C1.06738 47.8874 1.10858 48.0354 1.14449 48.148C1.18559 48.2769 1.24326 48.4286 1.31287 48.5963C1.45251 48.9328 1.65174 49.3618 1.89463 49.8552C2.38118 50.8437 3.05452 52.1144 3.80669 53.4679C5.30865 56.1705 7.14196 59.2339 8.44984 61.0615L8.85645 60.7705L9.26305 60.4795C7.98913 58.6994 6.17791 55.676 4.68078 52.9821C3.93342 51.6373 3.26858 50.3822 2.79183 49.4136C2.55308 48.9286 2.36438 48.5212 2.23651 48.213C2.17237 48.0585 2.12638 47.9357 2.09726 47.8443C2.06296 47.7367 2.06738 47.7185 2.06738 47.75H1.56738ZM8.85645 60.7705L8.44941 61.0609C12.9515 67.3715 22.1514 74.3305 29.8868 77.2902L30.0654 76.8232L30.2441 76.3563C22.6786 73.4615 13.6431 66.6191 9.26348 60.4801L8.85645 60.7705ZM30.0654 76.8232L29.8865 77.2901C34.2769 78.9731 37.7532 79.6852 42.2519 79.8172L42.2666 79.3174L42.2813 78.8176C37.9003 78.6891 34.5349 78.001 30.2444 76.3564L30.0654 76.8232ZM42.2666 79.3174L42.2519 79.8172C46.2732 79.9356 50.6861 79.4231 54.9932 78.3384L54.8711 77.8535L54.749 77.3687C50.522 78.4332 46.2013 78.9331 42.2813 78.8176L42.2666 79.3174ZM54.8711 77.8535L54.9946 78.338C58.7193 77.3882 61.3883 76.4044 64.4912 74.8359L64.2656 74.3896L64.0401 73.9434C61.0087 75.4758 58.4091 76.4353 54.7475 77.369L54.8711 77.8535ZM64.2656 74.3896L64.4915 74.8357C69.0574 72.5243 72.3257 70.1625 76.9533 65.8481L76.6123 65.4824L76.2713 65.1167C71.6965 69.382 68.5042 71.6835 64.0398 73.9436L64.2656 74.3896ZM76.6123 65.4824L76.9541 65.8474C77.9293 64.9342 78.8633 64.0876 79.014 63.9649L78.6982 63.5771L78.3825 63.1894C78.1988 63.3391 77.2357 64.2137 76.2706 65.1175L76.6123 65.4824ZM78.6982 63.5771L79.0472 63.9353C80.0066 63.0005 80.0122 62.0351 79.8026 61.53L79.3408 61.7217L78.879 61.9133C78.9202 62.0125 79.0376 62.5484 78.3493 63.219L78.6982 63.5771ZM79.3408 61.7217L79.8033 61.5317C79.7129 61.3116 79.6007 61.0913 79.4238 60.8981C79.2421 60.6997 79.0182 60.5577 78.7422 60.4514L78.5625 60.918L78.3828 61.3846C78.5438 61.4466 78.6284 61.5102 78.6863 61.5735C78.7491 61.642 78.8075 61.7394 78.8783 61.9117L79.3408 61.7217ZM78.5625 60.918L78.7398 60.4505C78.0501 60.1888 77.352 60.1627 76.4183 60.3963C75.5085 60.6239 74.345 61.1057 72.7039 61.8787L72.917 62.3311L73.1301 62.7834C74.771 62.0104 75.8558 61.5678 76.661 61.3664C77.4423 61.1709 77.926 61.2113 78.3852 61.3855L78.5625 60.918ZM72.917 62.3311L72.7035 61.8789C64.7831 65.6188 60.4395 67.0961 55.4231 67.7859L55.4912 68.2812L55.5593 68.7766C60.7231 68.0665 65.1735 66.5403 73.1305 62.7832L72.917 62.3311ZM55.4912 68.2812L55.4229 67.7859C48.6229 68.7232 41.0579 67.4399 34.6855 64.2549L34.4619 64.7021L34.2384 65.1494C40.7846 68.4212 48.5525 69.7423 55.5595 68.7766L55.4912 68.2812ZM34.4619 64.7021L34.6869 64.2556C33.1093 63.4608 31.4946 62.5224 30.2864 61.6761C29.6804 61.2515 29.1917 60.8607 28.8628 60.5314C28.6979 60.3662 28.5863 60.2295 28.52 60.1234C28.4478 60.0078 28.4611 59.9792 28.4594 60.0147L27.96 59.9902L27.4606 59.9658C27.4477 60.2288 27.5562 60.4679 27.6718 60.653C27.7932 60.8475 27.9617 61.0442 28.1553 61.2381C28.5436 61.6268 29.0859 62.056 29.7127 62.4951C30.9702 63.3759 32.6287 64.3384 34.2369 65.1487L34.4619 64.7021ZM27.96 59.9902L28.4593 60.015C28.4587 60.0282 28.4553 60.0534 28.4379 60.0814C28.429 60.0959 28.4189 60.1068 28.4104 60.1136C28.4023 60.1203 28.4008 60.119 28.4126 60.1145L28.2314 59.6484L28.0503 59.1824C27.8426 59.2631 27.6873 59.394 27.5876 59.5552C27.492 59.7096 27.4657 59.8619 27.4606 59.9655L27.96 59.9902ZM28.2314 59.6484L28.4241 60.1098C28.3808 60.1279 28.329 60.1349 28.289 60.1294C28.2675 60.1265 28.2848 60.1243 28.362 60.1637C28.5193 60.2439 28.8089 60.4347 29.3375 60.8588L29.6504 60.4688L29.9633 60.0787C29.4268 59.6484 29.0705 59.4025 28.8164 59.2729C28.6879 59.2074 28.5581 59.157 28.4251 59.1387C28.2735 59.1179 28.1457 59.1424 28.0387 59.1871L28.2314 59.6484ZM29.6504 60.4688L29.3351 60.8568C29.9434 61.351 30.8891 62.0365 31.4525 62.391L31.7188 61.9678L31.985 61.5446C31.4613 61.2151 30.5484 60.554 29.9656 60.0807L29.6504 60.4688ZM31.7188 61.9678L31.449 62.3888C33.018 63.3942 37.0944 65.3328 38.8872 65.9286L39.0449 65.4541L39.2026 64.9796C37.487 64.4095 33.4861 62.5065 31.9885 61.5468L31.7188 61.9678ZM39.0449 65.4541L38.8883 65.9289C45.0325 67.9557 49.1981 68.2906 52.2056 66.7736L51.9805 66.3271L51.7553 65.8807C49.1354 67.2021 45.3204 66.9977 39.2016 64.9793L39.0449 65.4541ZM51.9805 66.3271L52.2034 66.7747C52.8366 66.4593 53.4015 66.0438 53.8288 65.5932C54.247 65.1521 54.5753 64.6325 54.6512 64.1032L54.1562 64.0322L53.6613 63.9613C53.6271 64.2001 53.4527 64.5364 53.1031 64.9051C52.7627 65.2641 52.2948 65.612 51.7576 65.8796L51.9805 66.3271ZM54.1562 64.0322L54.6511 64.1036C54.7117 63.6835 54.6043 63.2762 54.2766 62.9754L53.9385 63.3438L53.6003 63.7121C53.6451 63.7532 53.683 63.8107 53.6614 63.9609L54.1562 64.0322ZM53.9385 63.3438L54.2732 62.9723C54.1987 62.9052 54.0864 62.8365 53.9927 62.7818C53.8836 62.7181 53.7446 62.6424 53.5831 62.5586C53.2595 62.3908 52.8332 62.1844 52.3507 61.9684L52.1465 62.4248L51.9422 62.8812C52.4096 63.0904 52.8183 63.2885 53.1227 63.4463C53.2753 63.5254 53.3986 63.5929 53.4885 63.6454C53.5938 63.7068 53.6173 63.7274 53.6037 63.7152L53.9385 63.3438ZM52.1465 62.4248L52.3493 61.9678C48.9335 60.4521 46.7601 59.276 44.3083 57.6189L44.0283 58.0332L43.7483 58.4475C46.2596 60.1447 48.4872 61.348 51.9437 62.8818L52.1465 62.4248ZM44.0283 58.0332L44.3082 57.6189C41.5176 55.7341 41.3623 55.6126 35.0654 50.2502L34.7412 50.6309L34.417 51.0115C40.7137 56.3738 40.9068 56.5283 43.7485 58.4476L44.0283 58.0332ZM34.7412 50.6309L35.0648 50.2497C32.4421 48.0231 30.0357 46.3306 27.2682 44.7687L27.0225 45.2041L26.7767 45.6395C29.4844 47.1678 31.8392 48.823 34.4176 51.012L34.7412 50.6309ZM27.0225 45.2041L27.266 44.7674C24.122 43.0138 21.8148 42.1556 18.7903 41.6323L18.7051 42.125L18.6198 42.6177C21.5146 43.1185 23.7153 43.9321 26.7789 45.6408L27.0225 45.2041ZM18.7051 42.125L18.7891 41.6321C17.5623 41.4229 15.9741 41.2901 14.8525 41.29L14.8525 41.79L14.8525 42.29C15.916 42.2901 17.448 42.4178 18.621 42.6179L18.7051 42.125ZM75.9189 57.4512L76.0301 56.9637C74.939 56.7149 73.4485 56.9471 71.8615 57.5275L72.0332 57.9971L72.2049 58.4667C73.7235 57.9113 74.995 57.7533 75.8078 57.9387L75.9189 57.4512ZM72.0332 57.9971L71.8619 57.5273C64.1416 60.3435 58.5479 61.6875 54.7197 61.6875V62.1875V62.6875C58.7345 62.6875 64.4681 61.2889 72.2046 58.4668L72.0332 57.9971ZM54.7197 62.1875V61.6875H54.1533V62.1875V62.6875H54.7197V62.1875ZM54.1533 62.1875L53.8615 62.5935L54.0559 62.7332L54.3477 62.3271L54.6394 61.9211L54.4451 61.7815L54.1533 62.1875ZM54.3477 62.3271L54.0572 62.7341C54.4094 62.9855 54.6087 63.1816 54.7225 63.3536C54.8265 63.5108 54.8721 63.6673 54.8721 63.877H55.3721H55.8721C55.8721 63.4895 55.7784 63.1374 55.5566 62.802C55.3446 62.4815 55.0318 62.2012 54.6382 61.9202L54.3477 62.3271ZM55.3721 63.877L54.8721 63.8768C54.872 64.2551 54.6492 64.7848 54.1739 65.3568C53.7098 65.9153 53.0515 66.456 52.2967 66.8548L52.5303 67.2969L52.7638 67.739C53.6289 67.282 54.3913 66.6598 54.943 65.9959C55.4836 65.3454 55.8719 64.5929 55.8721 63.8771L55.3721 63.877ZM52.5303 67.2969L52.2942 66.8561L52.0882 66.9665L52.3242 67.4072L52.5603 67.848L52.7663 67.7376L52.5303 67.2969ZM52.3242 67.4072L52.3519 67.9065L53.1624 67.8615L53.1348 67.3623L53.1071 66.8631L52.2966 66.908L52.3242 67.4072ZM53.1348 67.3623L53.1613 67.8616C55.4347 67.7406 58.7662 67.1454 61.1055 66.4438L60.9619 65.9648L60.8183 65.4859C58.5493 66.1664 55.2964 66.7466 53.1082 66.863L53.1348 67.3623ZM60.9619 65.9648L61.1054 66.4438C63.5997 65.6968 67.8564 63.9565 72.4867 61.7969L72.2754 61.3438L72.064 60.8906C67.4437 63.0456 63.2406 64.7604 60.8185 65.4859L60.9619 65.9648ZM72.2754 61.3438L72.4872 61.7967C74.3598 60.9208 75.9698 60.307 76.8056 60.132L76.7031 59.6426L76.6007 59.1532C75.6418 59.354 73.9409 60.0128 72.0636 60.8908L72.2754 61.3438ZM76.7031 59.6426L76.8121 60.1306C77.0895 60.0686 77.3633 59.9304 77.5319 59.6505L77.1035 59.3926L76.6752 59.1346C76.6773 59.1312 76.68 59.1276 76.6829 59.1248C76.6856 59.1221 76.6863 59.1221 76.6832 59.124C76.6761 59.1285 76.6509 59.1419 76.5941 59.1546L76.7031 59.6426ZM77.1035 59.3926L77.5332 59.6482C77.7446 59.2929 77.696 58.8559 77.5855 58.4771L77.1055 58.6172L76.6255 58.7572C76.6668 58.8989 76.6803 59.0008 76.6801 59.0686C76.6799 59.1359 76.6665 59.1492 76.6738 59.1369L77.1035 59.3926ZM77.1055 58.6172L77.5863 58.4801C77.4759 58.0928 77.2982 57.7546 77.0272 57.4882C76.7547 57.2204 76.4167 57.0537 76.0323 56.9642L75.9189 57.4512L75.8056 57.9382C76.0453 57.9939 76.2079 58.0851 76.3263 58.2015C76.4461 58.3192 76.5497 58.4915 76.6246 58.7543L77.1055 58.6172ZM70.7822 56.0791L70.9743 55.6174C70.6768 55.4937 70.2746 55.4105 69.8942 55.3662C69.5118 55.3217 69.0971 55.3102 68.7676 55.3576L68.8389 55.8525L68.9101 56.3474C69.1224 56.3169 69.443 56.3204 69.7786 56.3595C70.1163 56.3988 70.4148 56.4678 70.5902 56.5408L70.7822 56.0791ZM68.8389 55.8525L68.7783 55.3562C68.6207 55.3755 67.8474 55.5409 67.0523 55.714C66.2354 55.8918 65.3399 56.0903 64.8974 56.1887L65.0059 56.6768L65.1144 57.1648C65.5565 57.0666 66.4502 56.8685 67.265 56.6911C67.6725 56.6024 68.0593 56.5191 68.3596 56.4561C68.5099 56.4246 68.6372 56.3985 68.7341 56.3794C68.7826 56.3698 68.8221 56.3623 68.8524 56.3568C68.8675 56.3541 68.8793 56.352 68.8882 56.3506C68.8978 56.349 68.9008 56.3487 68.8994 56.3489L68.8389 55.8525ZM65.0059 56.6768L64.8971 56.1887C59.1037 57.4798 57.0493 57.7545 52.5787 57.8458L52.5889 58.3457L52.5991 58.8456C57.1532 58.7526 59.2757 58.466 65.1146 57.1648L65.0059 56.6768ZM52.5889 58.3457L52.5813 57.8458C50.0546 57.8838 48.79 57.8485 47.5247 57.7034L47.4678 58.2002L47.4108 58.6969C48.7426 58.8496 50.0599 58.8838 52.5964 58.8456L52.5889 58.3457ZM47.4678 58.2002L47.5188 57.7028C46.8187 57.631 46.3805 57.5896 46.1059 57.5663L46.0635 58.0645L46.021 58.5626C46.2873 58.5853 46.7191 58.626 47.4167 58.6976L47.4678 58.2002ZM46.0635 58.0645L45.805 58.4924C46.6138 58.981 48.5563 60.0651 49.8119 60.6915L50.0352 60.2441L50.2584 59.7967C49.0282 59.1829 47.1091 58.1119 46.322 57.6365L46.0635 58.0645ZM50.0352 60.2441L49.8136 60.6924L51.3488 61.4512L51.5703 61.0029L51.7919 60.5547L50.2567 59.7959L50.0352 60.2441ZM51.5703 61.0029V61.5029H53.9512V61.0029V60.5029H51.5703V61.0029ZM53.9512 61.0029L53.9512 61.5029C58.1812 61.5029 61.8922 60.7776 67.5976 58.8617L67.4385 58.3877L67.2793 57.9137C61.6352 59.8091 58.0367 60.5029 53.9512 60.5029L53.9512 61.0029ZM67.4385 58.3877L67.5978 58.8616C69.3198 58.2827 70.3685 57.9289 71.0031 57.7064C71.3195 57.5955 71.5403 57.5147 71.6927 57.4535C71.8227 57.4013 71.9644 57.3408 72.0651 57.2599L71.752 56.8701L71.4388 56.4803C71.4728 56.453 71.4728 56.4642 71.3201 56.5255C71.1897 56.5779 70.9868 56.6525 70.6723 56.7627C70.0452 56.9825 69.0038 57.3339 67.2791 57.9138L67.4385 58.3877ZM71.752 56.8701L72.2267 56.7132C72.1812 56.5757 72.0847 56.4557 72.0265 56.3876C71.9521 56.3006 71.859 56.2073 71.7553 56.1164C71.5515 55.9379 71.2742 55.7398 70.9712 55.6162L70.7822 56.0791L70.5933 56.542C70.7611 56.6105 70.9447 56.7357 71.0962 56.8685C71.1701 56.9332 71.2281 56.9927 71.2665 57.0375C71.2857 57.06 71.2963 57.0745 71.3004 57.0806C71.3083 57.0925 71.292 57.0718 71.2772 57.027L71.752 56.8701ZM50.0322 0.566406L50.1208 1.0585C50.6711 0.959464 51.3948 0.987679 52.1441 1.13483C52.8907 1.28145 53.6243 1.53863 54.1937 1.8668L54.4434 1.43359L54.693 1.00039C54.0096 0.606527 53.1677 0.316739 52.3368 0.153577C51.5088 -0.00904095 50.6533 -0.0534049 49.9437 0.0743114L50.0322 0.566406ZM54.4434 1.43359L54.1953 1.86771C54.4933 2.03802 54.8923 2.36186 55.2776 2.74523C55.6621 3.12778 55.9965 3.53311 56.1821 3.84657L56.6123 3.5918L57.0425 3.33702C56.7974 2.92311 56.3992 2.45044 55.9829 2.0363C55.5674 1.62297 55.0973 1.2314 54.6914 0.999475L54.4434 1.43359ZM56.6123 3.5918L56.1803 3.84358C56.5059 4.40209 56.9052 5.40633 57.1371 6.27284L57.6201 6.14355L58.1031 6.01427C57.8551 5.08758 57.4262 3.99528 57.0443 3.34001L56.6123 3.5918ZM57.6201 6.14355L57.1355 6.26661C57.1904 6.48301 57.2515 6.64969 57.3053 6.75897L57.7539 6.53809L58.2025 6.3172C58.1883 6.28833 58.1483 6.19189 58.1047 6.0205L57.6201 6.14355ZM57.7539 6.53809L57.9836 6.98222C59.4473 6.22535 60.614 5.85217 61.5839 5.80711C62.5317 5.76308 63.3173 6.03077 64.0447 6.61997L64.3594 6.23145L64.6741 5.84292C63.7609 5.10317 62.7361 4.75251 61.5375 4.80819C60.361 4.86285 59.0453 5.30746 57.5243 6.09395L57.7539 6.53809ZM64.3594 6.23145L64.0437 6.6192C64.6025 7.07409 65.0225 7.94094 65.1868 9.02745C65.3491 10.1014 65.2482 11.3139 64.8474 12.3797L65.3154 12.5557L65.7834 12.7316C66.2484 11.4949 66.3616 10.1088 66.1756 8.87799C65.9914 7.65975 65.5006 6.51574 64.675 5.84369L64.3594 6.23145ZM65.3154 12.5557L64.8498 12.3734C64.4408 13.4182 63.5081 14.967 62.6953 15.9463L63.0801 16.2656L63.4648 16.5849C64.3374 15.5336 65.3286 13.8938 65.781 12.7379L65.3154 12.5557ZM63.0801 16.2656L62.6947 15.9471C61.2521 17.6925 59.6669 18.9183 56.3157 20.8304L56.5635 21.2646L56.8113 21.6989C60.2081 19.7609 61.9118 18.4639 63.4655 16.5842L63.0801 16.2656ZM56.5635 21.2646L56.317 20.8296C56.0372 20.9882 55.7803 21.1289 55.5507 21.2554L55.792 21.6934L56.0333 22.1313C56.2604 22.0062 56.5237 21.8619 56.81 21.6997L56.5635 21.2646ZM55.792 21.6934L55.5526 21.2544C55.3579 21.3606 55.1515 21.473 54.9784 21.5737C54.8235 21.6637 54.6385 21.7758 54.5279 21.8796L54.8701 22.2441L55.2123 22.6087C55.2099 22.6109 55.2282 22.5949 55.2847 22.5578C55.3356 22.5245 55.4017 22.4843 55.4809 22.4382C55.6398 22.3459 55.833 22.2405 56.0314 22.1323L55.792 21.6934ZM54.8701 22.2441L54.7102 22.7179C54.8597 22.7683 55.0696 22.7879 55.2702 22.7998C55.4915 22.813 55.7738 22.8196 56.1083 22.822C56.7778 22.8267 57.6856 22.8149 58.7906 22.8007L58.7842 22.3008L58.7778 21.8008C57.6682 21.815 56.7725 21.8267 56.1154 21.822C55.7866 21.8196 55.5248 21.8132 55.3295 21.8016C55.2318 21.7958 55.1562 21.789 55.1003 21.7817C55.0386 21.7737 55.0217 21.7676 55.03 21.7704L54.8701 22.2441ZM58.7842 22.3008L58.7903 22.8007C59.4486 22.7927 60.1783 22.7744 61.0127 22.7744L61.0127 22.2744L61.0127 21.7744C60.171 21.7744 59.4198 21.7929 58.778 21.8008L58.7842 22.3008ZM61.0127 22.2744V22.7744C64.3044 22.7744 65.9508 22.729 66.8636 22.7353C67.3269 22.7385 67.518 22.7567 67.6041 22.7793C67.6327 22.7867 67.6149 22.7864 67.5862 22.7627C67.5601 22.7411 67.5542 22.7234 67.5724 22.755L68.0059 22.5059L68.4393 22.2567C68.3982 22.1851 68.3331 22.0828 68.2235 21.9921C68.1113 21.8993 67.9855 21.8454 67.8571 21.8118C67.6292 21.7522 67.3103 21.7384 66.8705 21.7353C65.9773 21.7291 64.2458 21.7744 61.0127 21.7744V22.2744ZM68.0059 22.5059L67.5684 22.7479C67.5378 22.6926 67.5267 22.646 67.5254 22.6409C67.5235 22.6334 67.5223 22.6277 67.5217 22.6246C67.5211 22.6214 67.5208 22.6194 67.5207 22.6189C67.5206 22.6183 67.521 22.6206 67.5217 22.6269C67.5224 22.633 67.5233 22.6412 67.5243 22.6519C67.5284 22.6968 67.5328 22.7661 67.5372 22.8623C67.546 23.0533 67.5537 23.3282 67.5603 23.6777C67.5735 24.3757 67.582 25.3574 67.586 26.5296C67.5941 28.8733 67.5841 31.9711 67.5582 35.0676C67.5323 38.1643 67.4903 41.2572 67.4345 43.5918C67.4066 44.7597 67.3752 45.7342 67.3408 46.4235C67.3236 46.7692 67.3059 47.0367 67.2881 47.2189C67.2791 47.3114 67.271 47.3718 67.2648 47.4057C67.2615 47.424 67.2609 47.4219 67.2652 47.4085C67.2672 47.402 67.274 47.3813 67.2877 47.3542C67.2972 47.3353 67.3325 47.2665 67.4091 47.2035L67.7266 47.5898L68.044 47.9761C68.1258 47.909 68.1662 47.833 68.1808 47.804C68.1995 47.7668 68.2113 47.7332 68.2184 47.7108C68.2327 47.6658 68.2421 47.6206 68.2486 47.5846C68.2622 47.5101 68.2734 47.4176 68.2834 47.316C68.3035 47.1098 68.3221 46.8234 68.3396 46.4733C68.3746 45.7709 68.4062 44.786 68.4342 43.6157C68.4902 41.2737 68.5322 38.175 68.5582 35.076C68.5841 31.9767 68.5941 28.8748 68.586 26.5262C68.582 25.3522 68.5735 24.3645 68.5601 23.6588C68.5535 23.3066 68.5455 23.0211 68.5362 22.8166C68.5315 22.7152 68.5263 22.6282 68.5201 22.5608C68.5171 22.5278 68.5132 22.4923 68.5078 22.459C68.5052 22.4426 68.5011 22.4201 68.4948 22.3952C68.4907 22.3791 68.4768 22.3243 68.4434 22.2638L68.0059 22.5059ZM67.7266 47.5898L67.4105 47.2024C67.4786 47.1469 67.5436 47.1254 67.5531 47.122C67.5742 47.1147 67.5894 47.1113 67.5931 47.1105C67.6012 47.1087 67.6001 47.1094 67.5834 47.1115C67.5521 47.1156 67.4986 47.1207 67.4177 47.1264C67.2582 47.1378 67.0202 47.1496 66.7007 47.1618C66.0632 47.1861 65.1191 47.2111 63.8686 47.2368C61.3687 47.2881 57.6541 47.3417 52.7414 47.3975L52.7471 47.8975L52.7528 48.3974C57.6662 48.3416 61.3844 48.2879 63.8891 48.2366C65.141 48.2109 66.0923 48.1857 66.7388 48.1611C67.0613 48.1488 67.3124 48.1365 67.4887 48.1239C67.5757 48.1177 67.6517 48.111 67.7116 48.1033C67.7405 48.0995 67.7754 48.0944 67.8098 48.0867C67.8267 48.083 67.8527 48.0766 67.8821 48.0664C67.9 48.0601 67.971 48.0357 68.0426 47.9773L67.7266 47.5898ZM52.7471 47.8975L52.7414 47.3975C46.6052 47.4675 42.9972 47.4961 40.8682 47.4961V47.9961V48.4961C43.0036 48.4961 46.6169 48.4674 52.7528 48.3974L52.7471 47.8975ZM40.8682 47.9961V47.4961C39.4718 47.4961 38.7217 47.4835 38.3132 47.4624C38.1054 47.4517 38.008 47.4397 37.9656 47.4314C37.9241 47.4234 38.0081 47.4316 38.0923 47.5142L37.7422 47.8711L37.392 48.228C37.5145 48.3482 37.6597 48.3908 37.7754 48.4132C37.8903 48.4355 38.0463 48.45 38.2616 48.4611C38.6994 48.4837 39.474 48.4961 40.8682 48.4961V47.9961ZM37.7422 47.8711L38.0951 47.5169C38.1624 47.5839 38.18 47.6503 38.179 47.6466C38.1758 47.6345 38.1652 47.5858 38.1526 47.4617C38.128 47.2184 38.1036 46.7725 38.0797 45.9441C38.0322 44.294 37.9876 41.1804 37.9365 35.2652L37.4365 35.2695L36.9365 35.2738C36.9876 41.1872 37.0322 44.311 37.0802 45.9729C37.104 46.8005 37.129 47.2792 37.1577 47.5624C37.1718 47.7015 37.1888 47.8165 37.2144 47.9102C37.2423 48.0123 37.2902 48.1266 37.3893 48.2253L37.7422 47.8711ZM37.4365 35.2695L37.9365 35.263C37.9363 35.246 37.8174 26.1978 37.8174 23.2656H37.3174H36.8174C36.8174 26.2062 36.9364 35.2633 36.9366 35.2761L37.4365 35.2695ZM37.3174 23.2656H37.8174C37.8174 23.1821 37.8591 23.0721 37.9701 22.9836L37.6582 22.5928L37.3463 22.202C37.0132 22.4678 36.8174 22.8584 36.8174 23.2656H37.3174ZM37.6582 22.5928L37.9703 22.9834C37.9999 22.9598 38.0124 22.9462 38.1015 22.9266C38.2248 22.8996 38.4458 22.8754 38.8858 22.8589C39.7567 22.8263 41.3509 22.8267 44.4238 22.8271L44.4238 22.3271L44.4239 21.8271C41.3647 21.8267 39.7435 21.8261 38.8484 21.8596C38.4053 21.8762 38.1056 21.9019 37.8871 21.9499C37.6344 22.0054 37.484 22.092 37.3461 22.2021L37.6582 22.5928ZM44.4238 22.3271L44.4248 22.8271L50.2901 22.8154L50.2891 22.3154L50.2881 21.8154L44.4228 21.8272L44.4238 22.3271ZM50.2891 22.3154L50.5309 21.8778L50.4567 21.8368L50.2148 22.2744L49.973 22.712L50.0472 22.753L50.2891 22.3154ZM50.2148 22.2744L50.4612 21.8393C47.9121 20.3958 44.6334 18.0229 43.169 16.5742L42.8174 16.9297L42.4657 17.2851C44.0121 18.815 47.3702 21.2382 49.9685 22.7095L50.2148 22.2744ZM42.8174 16.9297L43.1692 16.5744C42.0645 15.4806 41.3071 14.3776 40.6804 13.1403L40.2344 13.3662L39.7883 13.5921C40.4582 14.9147 41.2766 16.1077 42.4656 17.285L42.8174 16.9297ZM40.2344 13.3662L40.6804 13.1402C40.3031 12.3956 40.2196 11.628 40.2618 10.9843C40.3047 10.331 40.4744 9.84238 40.5599 9.67781L40.1162 9.44727L39.6725 9.21672C39.5127 9.52437 39.3143 10.1522 39.264 10.9188C39.2131 11.6951 39.3113 12.6508 39.7884 13.5922L40.2344 13.3662ZM40.1162 9.44727L40.5567 9.68387C41.5073 7.91406 43.2457 7.223 44.8914 7.84558L45.0684 7.37793L45.2453 6.91027C43.0689 6.08697 40.8314 7.05922 39.6757 9.21067L40.1162 9.44727ZM45.0684 7.37793L44.8947 7.84682L45.3615 8.01967L45.5352 7.55078L45.7088 7.08189L45.242 6.90904L45.0684 7.37793ZM45.5352 7.55078L46.0339 7.58564L46.1003 6.63544L45.6016 6.60059L45.1028 6.56573L45.0364 7.51592L45.5352 7.55078ZM45.6016 6.60059L46.1002 6.63798C46.3326 3.53868 47.976 1.43505 50.1187 1.05887L50.0322 0.566406L49.9458 0.0739385C47.1935 0.557146 45.3559 3.19139 45.103 6.56319L45.6016 6.60059ZM38.5068 35.835L38.0072 35.854L38.0804 37.7739L38.5801 37.7549L39.0797 37.7358L39.0065 35.8159L38.5068 35.835ZM38.5801 37.7549L38.0806 37.7782C38.132 38.8785 38.1738 41.4183 38.1738 43.4365H38.6738H39.1738C39.1738 41.4132 39.132 38.8552 39.0795 37.7316L38.5801 37.7549ZM38.6738 43.4365H38.1738V46.9072H38.6738H39.1738V43.4365H38.6738ZM38.6738 46.9072L38.6772 47.4072L44.3988 47.3691L44.3955 46.8691L44.3922 46.3692L38.6705 46.4072L38.6738 46.9072ZM44.3955 46.8691L44.3974 47.3691C47.6452 47.3568 50.7691 47.3039 51.3899 47.2646L51.3584 46.7656L51.3269 46.2666C50.7424 46.3036 47.6527 46.3567 44.3936 46.3691L44.3955 46.8691ZM51.3584 46.7656L51.3944 47.2643L52.3544 47.195L52.3184 46.6963L52.2823 46.1976L51.3224 46.2669L51.3584 46.7656ZM52.3184 46.6963H52.8184V41.7588H52.3184H51.8184V46.6963H52.3184ZM52.3184 41.7588H52.8184C52.8184 40.3281 52.8082 39.0059 52.7935 38.0066C52.7861 37.5071 52.7776 37.0871 52.7685 36.7739C52.76 36.4768 52.7503 36.2419 52.7367 36.1412L52.2412 36.208L51.7457 36.2749C51.7455 36.2737 51.7459 36.2765 51.7467 36.2852C51.7475 36.2932 51.7483 36.3042 51.7493 36.3184C51.7513 36.3468 51.7534 36.3842 51.7556 36.431C51.76 36.5246 51.7645 36.6493 51.769 36.8028C51.7778 37.1094 51.7863 37.5243 51.7936 38.0214C51.8083 39.0151 51.8184 40.3323 51.8184 41.7588H52.3184ZM52.2412 36.208L52.7323 36.1142L52.661 35.7411L52.1699 35.835L51.6788 35.9288L51.7501 36.3019L52.2412 36.208ZM52.1699 35.835V35.335H38.5068V35.835V36.335H52.1699V35.835ZM54.0137 35.8857L54.0748 35.3895C53.7859 35.3539 53.509 35.3559 53.3483 35.3921L53.458 35.8799L53.5677 36.3677C53.5541 36.3708 53.5838 36.3642 53.6678 36.3639C53.7423 36.3635 53.8404 36.3682 53.9525 36.382L54.0137 35.8857ZM53.458 35.8799L52.9705 35.7686C52.9373 35.9142 52.9203 36.1893 52.9087 36.5318C52.8962 36.8971 52.8889 37.3963 52.8882 38.0303C52.8868 39.2991 52.9117 41.1193 52.9758 43.5114L53.4756 43.498L53.9754 43.4847C53.9115 41.0981 53.8868 39.2878 53.8882 38.0314C53.8889 37.4029 53.8962 36.9158 53.9081 36.5659C53.914 36.3906 53.9211 36.2531 53.9287 36.1511C53.9325 36.1001 53.9363 36.0605 53.9398 36.0311C53.9436 35.9994 53.9461 35.9886 53.9455 35.9911L53.458 35.8799ZM53.4756 43.498L52.9757 43.5098L53.0519 46.7617L53.5518 46.75L54.0516 46.7383L53.9754 43.4863L53.4756 43.498ZM53.5518 46.75L53.5576 47.25L60.1162 47.1728L60.1104 46.6729L60.1045 46.1729L53.5459 46.25L53.5518 46.75ZM60.1104 46.6729L60.1158 47.1728C63.6141 47.1348 66.2691 47.0666 66.8008 47.028L66.7646 46.5293L66.7285 46.0306C66.2346 46.0664 63.6156 46.1347 60.1049 46.1729L60.1104 46.6729ZM66.7646 46.5293L67.2631 46.5684C67.2997 46.1027 67.3577 44.0096 67.3818 41.1986L66.8818 41.1943L66.3819 41.19C66.3576 44.0117 66.2995 46.0664 66.2662 46.4902L66.7646 46.5293ZM66.8818 41.1943L67.3818 41.1981L67.4209 35.9696L66.9209 35.9658L66.4209 35.9621L66.3819 41.1906L66.8818 41.1943ZM66.9209 35.9658V35.4658H60.8271V35.9658V36.4658H66.9209V35.9658ZM60.8271 35.9658V35.4658C59.1841 35.4658 57.5676 35.4567 56.3201 35.4421C55.6961 35.4348 55.1657 35.4262 54.7709 35.4167C54.5734 35.412 54.4114 35.4071 54.2894 35.4021C54.2284 35.3996 54.179 35.3971 54.1409 35.3948C54.122 35.3936 54.1069 35.3925 54.0953 35.3915C54.0896 35.391 54.0852 35.3906 54.0819 35.3903C54.0785 35.39 54.077 35.3898 54.0771 35.3898L54.0137 35.8857L53.9503 36.3817C54.0675 36.3967 54.363 36.4072 54.747 36.4164C55.1476 36.426 55.6826 36.4347 56.3084 36.442C57.5604 36.4566 59.1808 36.4658 60.8271 36.4658V35.9658ZM38.4756 23.5117L37.9756 23.5153L38.0147 29.0445L38.5146 29.041L39.0146 29.0375L38.9756 23.5082L38.4756 23.5117ZM38.5146 29.041L38.0147 29.0452C38.0406 32.1091 38.0743 34.1911 38.0972 34.6723L38.5967 34.6484L39.0961 34.6246C39.0743 34.1681 39.0406 32.1106 39.0146 29.0368L38.5146 29.041ZM38.5967 34.6484L38.5743 35.1479C39.1179 35.1723 41.6945 35.2178 45.4129 35.2558L45.418 34.7559L45.4231 34.2559C41.6964 34.2177 39.1411 34.1724 38.6191 34.1489L38.5967 34.6484ZM45.418 34.7559L45.4132 35.2558L52.1818 35.3203L52.1865 34.8203L52.1913 34.3203L45.4227 34.2559L45.418 34.7559ZM52.1865 34.8203H52.6865V23.5117H52.1865H51.6865V34.8203H52.1865ZM52.1865 23.5117V23.0117H38.4756V23.5117V24.0117H52.1865V23.5117ZM60.2451 23.3799V22.8799C56.4575 22.8799 53.7851 22.9303 53.3312 22.9729L53.3779 23.4707L53.4247 23.9685C53.8195 23.9314 56.4316 23.8799 60.2451 23.8799V23.3799ZM53.3779 23.4707L52.8907 23.3586C52.8544 23.5159 52.8391 23.8036 52.8293 24.1238C52.8189 24.4675 52.8142 24.9136 52.8133 25.4305C52.8117 26.4649 52.8258 27.7974 52.8428 29.1907L53.3428 29.1846L53.8427 29.1785C53.8257 27.7845 53.8117 26.4586 53.8133 25.4321C53.8141 24.9185 53.8189 24.4835 53.8289 24.1542C53.8339 23.9893 53.8401 23.8546 53.8475 23.7516C53.8512 23.7001 53.855 23.6594 53.8587 23.6283C53.8626 23.5951 53.8653 23.5823 53.8652 23.5828L53.3779 23.4707ZM53.3428 29.1846L52.8428 29.1915L52.9209 34.7892L53.4209 34.7822L53.9208 34.7752L53.8427 29.1776L53.3428 29.1846ZM53.4209 34.7822V35.2822H66.8955V34.7822V34.2822H53.4209V34.7822ZM66.8955 34.7822H67.3955V23.3799H66.8955H66.3955V34.7822H66.8955ZM66.8955 23.3799V22.8799H60.2451V23.3799V23.8799H66.8955V23.3799ZM52.2217 1.80762L52.3454 1.32316C51.3295 1.06379 50.3841 1.06478 49.5368 1.36533C48.6865 1.66692 47.9809 2.25391 47.4203 3.08582L47.835 3.36523L48.2496 3.64464C48.7117 2.95889 49.2556 2.5261 49.8711 2.3078C50.4895 2.08846 51.2261 2.06947 52.098 2.29208L52.2217 1.80762ZM47.835 3.36523L47.4242 3.08012C47.1009 3.54594 46.7263 4.26866 46.6033 4.69831L47.084 4.83594L47.5647 4.97356C47.6476 4.684 47.9602 4.06165 48.2457 3.65035L47.835 3.36523ZM47.084 4.83594L46.6051 4.69219C46.4671 5.15201 46.3359 5.90258 46.2516 6.5696C46.2089 6.90712 46.1768 7.23492 46.1617 7.50674C46.1542 7.64232 46.1507 7.76944 46.153 7.87973C46.155 7.97959 46.162 8.10203 46.19 8.20928L46.6738 8.08301L47.1576 7.95674C47.161 7.96964 47.1545 7.94605 47.1527 7.8593C47.1512 7.78299 47.1535 7.68294 47.1602 7.5619C47.1736 7.3205 47.2029 7.01729 47.2437 6.695C47.3262 6.0424 47.4493 5.35813 47.5629 4.97969L47.084 4.83594ZM46.6738 8.08301L46.1892 8.20587C46.2081 8.28051 46.2402 8.34295 46.2576 8.37541C46.2794 8.41583 46.3047 8.45694 46.3307 8.49644C46.383 8.57592 46.4505 8.66772 46.528 8.76563C46.6837 8.96215 46.8938 9.20063 47.136 9.43977L47.4873 9.08398L47.8386 8.72819C47.6253 8.51758 47.4423 8.30938 47.3119 8.14475C47.2465 8.06208 47.1976 7.99469 47.166 7.94668C47.1501 7.92243 47.1416 7.90771 47.1382 7.90152C47.1306 7.88736 47.1464 7.9124 47.1585 7.96015L46.6738 8.08301ZM47.4873 9.08398L47.1322 9.43603C48.4579 10.773 50.2068 13.6534 51.0779 15.9681L51.5459 15.792L52.0139 15.6159C51.1066 13.2051 49.291 10.193 47.8424 8.73194L47.4873 9.08398ZM51.5459 15.792L51.079 15.9708C51.3742 16.7415 51.713 17.6383 51.9635 18.3782C52.0892 18.7494 52.1892 19.0712 52.2505 19.3136C52.2813 19.4357 52.2993 19.5262 52.3072 19.5868C52.309 19.6011 52.3101 19.6121 52.3106 19.62C52.3112 19.6282 52.3111 19.6315 52.3111 19.6309C52.3111 19.6307 52.3112 19.6228 52.3132 19.6093C52.315 19.5966 52.3197 19.5706 52.3323 19.5375L52.7998 19.7148L53.2673 19.8922C53.3043 19.7947 53.3102 19.7022 53.311 19.6449C53.3119 19.581 53.3065 19.5172 53.2989 19.4587C53.2838 19.3417 53.2552 19.208 53.22 19.0686C53.1491 18.7879 53.0391 18.4368 52.9107 18.0575C52.6532 17.2968 52.3078 16.3832 52.0128 15.6131L51.5459 15.792ZM52.7998 19.7148L52.3374 19.5246C52.3382 19.5226 52.3402 19.5187 52.344 19.5141C52.3477 19.5095 52.3519 19.5058 52.3558 19.5032C52.3643 19.4975 52.3648 19.5009 52.3495 19.5017L52.377 20.001L52.4044 20.5002C52.7736 20.4799 53.112 20.2701 53.2622 19.9051L52.7998 19.7148ZM52.377 20.001L52.3345 19.5028C52.3226 19.5038 52.3072 19.5015 52.2889 19.4911C52.2698 19.4802 52.2513 19.4622 52.2386 19.439L51.7998 19.6787L51.361 19.9184C51.56 20.2827 51.9634 20.538 52.4194 20.4992L52.377 20.001ZM51.7998 19.6787L52.2262 19.4176C52.1549 19.3011 51.7838 18.564 51.4756 17.6134L51 17.7676L50.5244 17.9217C50.8498 18.9257 51.2506 19.7393 51.3734 19.9399L51.7998 19.6787ZM51 17.7676L51.474 17.6085C50.9754 16.1223 50.2421 14.4708 49.4918 13.0596C48.7522 11.6686 47.9609 10.4432 47.3316 9.86441L46.9932 10.2324L46.6547 10.6004C47.1457 11.052 47.8693 12.1381 48.6088 13.5291C49.3376 14.8998 50.0476 16.5006 50.526 17.9266L51 17.7676ZM46.9932 10.2324L47.3307 9.86356C47.3039 9.83906 47.2576 9.79554 47.2211 9.7636L46.8916 10.1396L46.5621 10.5157C46.5883 10.5387 46.6108 10.5603 46.6556 10.6013L46.9932 10.2324ZM46.8916 10.1396L46.3929 10.176C46.4079 10.3823 46.4846 10.7227 46.582 11.0981C46.6835 11.4895 46.82 11.9643 46.9733 12.4635C47.2789 13.4594 47.6574 14.5731 47.9676 15.335L48.4307 15.1465L48.8938 14.958C48.5994 14.2349 48.2308 13.1526 47.9292 12.1701C47.7788 11.6801 47.6467 11.22 47.5499 10.847C47.449 10.458 47.3976 10.2044 47.3903 10.1033L46.8916 10.1396ZM48.4307 15.1465L47.9686 15.3375C48.3155 16.1765 48.9101 17.3927 49.2768 18.0065L49.7061 17.75L50.1353 17.4935C49.7999 16.9323 49.2263 15.7623 48.8927 14.9554L48.4307 15.1465ZM49.7061 17.75L49.2773 18.0073C49.635 18.6032 50.2575 19.5227 50.8416 20.3428C51.1347 20.7542 51.4212 21.1449 51.6634 21.4617C51.8981 21.7686 52.111 22.0325 52.2499 22.1699L52.6016 21.8145L52.9532 21.459C52.8713 21.378 52.6988 21.1694 52.4578 20.8542C52.2243 20.5489 51.9448 20.1679 51.6561 19.7626C51.0766 18.9491 50.4721 18.0547 50.1348 17.4927L49.7061 17.75ZM52.6016 21.8145L52.2404 22.1602L52.4601 22.3897L52.8213 22.0439L53.1824 21.6982L52.9627 21.4687L52.6016 21.8145ZM52.8213 22.0439L53.0652 22.4804L55.2283 21.2714L54.9844 20.835L54.7404 20.3985L52.5773 21.6075L52.8213 22.0439ZM54.9844 20.835L55.23 21.2705C60.4877 18.3047 62.6404 16.4493 64.1766 13.3811L63.7295 13.1572L63.2824 12.9334C61.8831 15.7284 59.9476 17.4613 54.7387 20.3995L54.9844 20.835ZM63.7295 13.1572L64.1763 13.3816C65.1086 11.5249 65.3623 10.0263 64.9178 8.44842L64.4365 8.58398L63.9553 8.71955C64.3113 9.98356 64.1429 11.2196 63.2827 12.9329L63.7295 13.1572ZM64.4365 8.58398L64.9177 8.44817C64.6184 7.38755 64.0178 6.60648 63.098 6.22223L62.9053 6.68359L62.7125 7.14495C63.2899 7.38615 63.7191 7.88293 63.9553 8.7198L64.4365 8.58398ZM62.9053 6.68359L63.0969 6.22178C61.8196 5.6917 60.1913 6.0255 58.4549 6.96776L58.6934 7.40723L58.9318 7.84669C60.5751 6.95501 61.856 6.78952 62.7136 7.14541L62.9053 6.68359ZM58.6934 7.40723L58.454 6.96826L57.7538 7.35009L57.9932 7.78906L58.2325 8.22803L58.9327 7.8462L58.6934 7.40723ZM57.9932 7.78906L57.4933 7.77889L57.4562 9.60311L57.9561 9.61328L58.456 9.62345L58.4931 7.79923L57.9932 7.78906ZM57.9561 9.61328L57.4561 9.60372C57.4035 12.355 56.7844 14.2048 55.6626 15.3746L56.0234 15.7207L56.3843 16.0668C57.7554 14.6371 58.4011 12.4901 58.456 9.62284L57.9561 9.61328ZM56.0234 15.7207L55.6612 15.3761C55.4356 15.6132 55.3236 15.7005 55.239 15.7427C55.1715 15.7764 55.0873 15.7988 54.8652 15.7988L54.8652 16.2988L54.8652 16.7988C55.1482 16.7988 55.4143 16.7727 55.6853 16.6376C55.9391 16.511 56.1537 16.3092 56.3857 16.0653L56.0234 15.7207ZM54.8652 16.2988V15.7988C54.6578 15.7988 54.5737 15.7774 54.5218 15.7541C54.4701 15.7309 54.3992 15.6829 54.2631 15.529L53.8887 15.8604L53.5142 16.1917C53.6862 16.386 53.8694 16.5573 54.1119 16.6662C54.3541 16.7751 54.6044 16.7988 54.8652 16.7988V16.2988ZM53.8887 15.8604L54.2698 15.5367C53.9549 15.1659 53.8246 14.7483 53.9053 13.464L53.4062 13.4326L52.9072 13.4013C52.8233 14.7382 52.9275 15.5008 53.5075 16.184L53.8887 15.8604ZM53.4062 13.4326L53.9053 13.4634C54.0022 11.8903 54.9896 9.79064 56.3909 8.28942L56.0254 7.94824L55.6599 7.60706C54.1402 9.23505 53.0216 11.5446 52.9072 13.4019L53.4062 13.4326ZM56.0254 7.94824L56.3924 8.28784L57.0584 7.56811L56.6914 7.22852L56.3244 6.88892L55.6584 7.60865L56.0254 7.94824ZM56.6914 7.22852L57.1734 7.0956L56.9146 6.15712L56.4326 6.29004L55.9506 6.42296L56.2094 7.36143L56.6914 7.22852ZM56.4326 6.29004L56.9152 6.15919C56.516 4.6871 56.0014 3.67614 55.1747 2.85919L54.8232 3.21484L54.4718 3.5705C55.1316 4.22248 55.579 5.05257 55.95 6.42088L56.4326 6.29004ZM54.8232 3.21484L55.1751 2.8596C54.3665 2.05873 53.5775 1.63852 52.3457 1.32323L52.2217 1.80762L52.0977 2.292C53.185 2.57027 53.8079 2.91287 54.4714 3.57008L54.8232 3.21484ZM43.5889 8.25684V7.75684C42.552 7.75684 41.6589 8.29807 41.0189 9.24798L41.4336 9.52734L41.8483 9.80671C42.3384 9.07919 42.9443 8.75684 43.5889 8.75684V8.25684ZM41.4336 9.52734L41.0179 9.24943C40.7679 9.62343 40.5848 9.9258 40.4956 10.2984C40.4093 10.659 40.4203 11.0489 40.4521 11.5741L40.9512 11.5439L41.4503 11.5138C41.4176 10.9735 41.4213 10.7267 41.4681 10.5312C41.512 10.3477 41.6023 10.1745 41.8492 9.80526L41.4336 9.52734ZM40.9512 11.5439L40.452 11.5726C40.5116 12.6098 40.8598 13.3894 41.7735 14.7701L42.1904 14.4941L42.6074 14.2182C41.7247 12.8843 41.4946 12.2854 41.4503 11.5153L40.9512 11.5439ZM42.1904 14.4941L41.7749 14.7722C42.4274 15.7474 43.6999 16.9779 45.2148 18.1925C46.7402 19.4157 48.5509 20.6541 50.3147 21.6396L50.5586 21.2031L50.8025 20.7666C49.0907 19.8101 47.3258 18.6035 45.8404 17.4124C44.3443 16.2128 43.1705 15.0598 42.606 14.2161L42.1904 14.4941ZM50.5586 21.2031L50.3083 21.6359C50.4291 21.7059 50.5362 21.7651 50.6294 21.8136L50.8604 21.3701L51.0913 20.9266C51.0144 20.8866 50.9207 20.8349 50.8089 20.7703L50.5586 21.2031ZM50.8604 21.3701L51.2695 21.0827C51.1927 20.9734 51.096 20.8399 50.9812 20.6888L50.583 20.9912L50.1849 21.2937C50.2919 21.4345 50.3812 21.5579 50.4512 21.6575L50.8604 21.3701ZM50.583 20.9912L50.9769 20.6832C50.0044 19.4394 48.5912 17.1112 48.0846 15.929L47.625 16.126L47.1654 16.3229C47.7122 17.5986 49.1738 20.0006 50.1891 21.2992L50.583 20.9912ZM47.625 16.126L48.0852 15.9306C47.327 14.1449 46.6137 11.8879 46.3851 10.5827L45.8926 10.6689L45.4001 10.7552C45.6461 12.1593 46.3881 14.4923 47.1648 16.3214L47.625 16.126ZM45.8926 10.6689L46.385 10.582C46.3083 10.1481 46.2487 9.81018 46.1935 9.54916C46.1392 9.29245 46.0823 9.0749 46.0016 8.89507C45.9126 8.697 45.7958 8.54613 45.6348 8.42213C45.4965 8.31567 45.3316 8.23613 45.1929 8.16733L44.9707 8.61523L44.7485 9.06314C44.916 9.14625 44.9808 9.18067 45.0246 9.21439C45.0456 9.23056 45.063 9.24607 45.0893 9.30474C45.1239 9.38165 45.1633 9.51121 45.2152 9.75613C45.2661 9.99673 45.3223 10.315 45.4002 10.7559L45.8926 10.6689ZM44.9707 8.61523L45.1957 8.16873C44.6617 7.8996 44.1193 7.75686 43.5889 7.75684L43.5889 8.25684L43.5888 8.75684C43.9378 8.75685 44.327 8.85071 44.7457 9.06174L44.9707 8.61523ZM56.7695 8.76172L56.3963 8.42904C56.235 8.60996 55.958 9.00586 55.6771 9.44838C55.3903 9.90023 55.0758 10.438 54.8414 10.92L55.291 11.1387L55.7407 11.3574C55.9529 10.921 56.2463 10.4177 56.5214 9.98431C56.8024 9.54164 57.0413 9.20823 57.1428 9.0944L56.7695 8.76172ZM55.291 11.1387L54.8402 10.9224C54.4 11.8398 54.1152 12.7146 54.0123 13.4683C53.9125 14.2001 53.9714 14.9175 54.3488 15.4182L54.748 15.1172L55.1473 14.8162C55.0098 14.6338 54.9153 14.2474 55.0032 13.6035C55.088 12.9815 55.3322 12.2086 55.7418 11.355L55.291 11.1387ZM54.748 15.1172L54.3427 15.4099C54.3552 15.4273 54.3786 15.4593 54.4035 15.4907C54.4157 15.506 54.4321 15.5262 54.4503 15.5463C54.4572 15.554 54.5029 15.6064 54.569 15.6492L54.8408 15.2295L55.1126 14.8098C55.1323 14.8226 55.1471 14.8342 55.1558 14.8415C55.165 14.8491 55.1721 14.8556 55.1766 14.8599C55.1853 14.8682 55.1906 14.8741 55.1919 14.8754C55.1935 14.8773 55.1938 14.8777 55.1926 14.8762C55.1914 14.8748 55.1896 14.8726 55.1872 14.8695C55.1821 14.8631 55.1761 14.8553 55.1698 14.8469C55.1636 14.8386 55.1579 14.8307 55.1534 14.8245L54.748 15.1172ZM54.8408 15.2295L55.0469 15.6851C55.1088 15.6571 55.1557 15.62 55.1618 15.6152C55.1801 15.6014 55.1975 15.5869 55.2117 15.5747C55.2407 15.5499 55.2734 15.5204 55.3044 15.4918C55.3671 15.434 55.438 15.3662 55.4878 15.3188L55.1426 14.957L54.7974 14.5953C54.7459 14.6444 54.6817 14.7058 54.6266 14.7565C54.5987 14.7822 54.5769 14.8018 54.5622 14.8143C54.5546 14.8208 54.5529 14.8221 54.5554 14.8201C54.5567 14.8191 54.5624 14.8148 54.5713 14.8089C54.5769 14.8052 54.6004 14.7895 54.6348 14.7739L54.8408 15.2295ZM55.1426 14.957L55.4858 15.3206C55.8199 15.0052 56.1563 14.4477 56.4325 13.8657C56.7157 13.2691 56.9662 12.5812 57.1043 11.9589L56.6162 11.8506L56.1281 11.7422C56.0092 12.2779 55.7866 12.8943 55.5291 13.4369C55.2646 13.9942 54.9927 14.4109 54.7994 14.5934L55.1426 14.957ZM56.6162 11.8506L57.1036 11.962C57.2294 11.4121 57.3242 10.4339 57.3242 9.75687L56.8242 9.75684L56.3242 9.7568C56.3242 10.3783 56.234 11.2792 56.1288 11.7391L56.6162 11.8506ZM56.8242 9.75684H57.3242C57.3242 9.26457 57.2959 8.89151 57.2635 8.68457L56.7695 8.76172L56.2755 8.83887C56.2969 8.97584 56.3242 9.2927 56.3242 9.75684H56.8242Z" fill="#C08237"/>
</svg>
